<svg width="498" height="553" viewBox="0 0 498 553" fill="none" xmlns="http://www.w3.org/2000/svg">
<path d="M464.566 248.659C450.011 266.368 446.755 229.253 424.783 229.253C402.812 229.253 399.555 267.823 385 248.659C385 228.965 402.812 213 424.783 213C446.755 213 464.566 228.965 464.566 248.659Z" fill="#165C73"/>
<path d="M497.566 378.659C483.011 396.368 479.755 359.253 457.783 359.253C435.812 359.253 432.555 397.823 418 378.659C418 358.965 435.812 343 457.783 343C479.755 343 497.566 358.965 497.566 378.659Z" fill="#165C73"/>
<path d="M443.411 511.861C422.75 521.789 435.433 486.757 415.506 477.5C395.579 468.244 376.377 501.852 371.25 478.34C379.547 460.479 402.427 453.504 422.353 462.76C442.28 472.017 451.708 494 443.411 511.861Z" fill="#165C73"/>
<path d="M104.566 248.659C90.0114 266.368 86.7547 229.253 64.7831 229.253C42.8115 229.253 39.5548 267.823 25 248.659C25 228.965 42.8115 213 64.7831 213C86.7547 213 104.566 228.965 104.566 248.659Z" fill="#165C73"/>
<path d="M201.631 86.3839C178.904 83.4029 208.674 61.0017 197.049 42.3576C185.424 23.7135 150.971 41.3579 159.532 18.8676C176.243 8.44731 199.215 15.114 210.84 33.7581C222.466 52.4022 218.343 75.9636 201.631 86.3839Z" fill="#165C73"/>
<path d="M330.387 25.1425C332.683 47.9495 304.067 24.0903 288.575 39.6711C273.084 55.2518 298.139 84.7562 274.287 81.5655C260.321 67.6797 261.558 43.7924 277.05 28.2116C292.542 12.6308 316.422 11.2567 330.387 25.1425Z" fill="#165C73"/>
<path d="M79.5662 378.659C65.0114 396.368 61.7547 359.253 39.7831 359.253C17.8115 359.253 14.5548 397.823 0 378.659C0 358.965 17.8115 343 39.7831 343C61.7547 343 79.5662 358.965 79.5662 378.659Z" fill="#165C73"/>
<path d="M120.09 464.904C122.599 487.688 93.7614 464.099 78.4166 479.824C63.0718 495.55 88.4027 524.818 64.5219 521.851C50.4266 508.097 51.4394 484.199 66.7842 468.473C82.1289 452.748 105.995 451.15 120.09 464.904Z" fill="#165C73"/>
<circle cx="249" cy="353" r="200" fill="#50BB98"/>
<path d="M249 153C222.736 153 196.728 158.173 172.463 168.224C148.198 178.275 126.15 193.007 107.579 211.579C89.0069 230.15 74.275 252.198 64.2241 276.463C54.1732 300.728 49 326.736 49 353C49 379.264 54.1732 405.272 64.2241 429.537C74.275 453.802 89.0069 475.85 107.579 494.421C126.15 512.993 148.198 527.725 172.463 537.776C196.728 547.827 222.736 553 249 553L249 353L249 153Z" fill="#328166"/>
<path d="M374 158C374 227.036 318.036 173 249 173C179.964 173 124 227.036 124 158C124 88.9644 179.964 33 249 33C318.036 33 374 88.9644 374 158Z" fill="#165C73"/>
<path d="M184.5 109.5C184.5 178.536 241.626 173.805 222.5 175C190.5 177 124 227.036 124 158C124 88.9644 173.5 50 217.5 34C267.5 31.5 184.5 40.4645 184.5 109.5Z" fill="#104456"/>
<circle cx="165" cy="433" r="25" fill="#165C73"/>
<circle cx="308" cy="483" r="25" fill="#165C73"/>
<circle cx="374" cy="396" r="25" fill="#165C73"/>
<circle cx="349" cy="268" r="25" fill="#165C73"/>
<circle cx="115" cy="318" r="25" fill="#165C73"/>
<circle cx="209" cy="229" r="25" fill="#165C73"/>
<circle cx="347" cy="106" r="25" fill="#F2F2F2"/>
<circle cx="149" cy="106" r="25" fill="#C4C4C4"/>
</svg>
