<svg viewBox="0 0 224 90" fill="none" xmlns="http://www.w3.org/2000/svg">
    <g clip-path="url(#clip0_312:63)">
        <path
            d="M175.035 40.901C172.664 43.7571 172.134 37.7712 168.557 37.7712C164.979 37.7712 164.449 43.9917 162.08 40.901C162.08 37.7247 164.979 35.1499 168.557 35.1499C172.134 35.1499 175.035 37.7247 175.035 40.901Z"
            fill="#165C73" />
        <path
            d="M180.407 61.8674C178.038 64.7235 177.508 58.7376 173.93 58.7376C170.352 58.7376 169.823 64.9581 167.452 61.8674C167.452 58.6911 170.352 56.1163 173.93 56.1163C177.508 56.1163 180.407 58.6911 180.407 61.8674Z"
            fill="#165C73" />
        <path
            d="M171.59 83.3502C168.226 84.9514 170.29 79.3014 167.045 77.8085C163.802 76.3157 160.675 81.736 159.84 77.9439C161.191 75.0633 164.916 73.9384 168.161 75.4312C171.406 76.9242 172.94 80.4696 171.59 83.3502Z"
            fill="#165C73" />
        <path
            d="M116.416 40.901C114.046 43.7571 113.516 37.7712 109.938 37.7712C106.361 37.7712 105.83 43.9917 103.46 40.901C103.46 37.7247 106.361 35.1499 109.938 35.1499C113.516 35.1499 116.416 37.7247 116.416 40.901Z"
            fill="#165C73" />
        <path
            d="M132.221 14.7292C128.52 14.2484 133.368 10.6356 131.475 7.62864C129.582 4.62172 123.972 7.46741 125.366 3.84017C128.087 2.15959 131.828 3.23479 133.721 6.24171C135.613 9.24864 134.942 13.0486 132.221 14.7292Z"
            fill="#165C73" />
        <path
            d="M153.186 4.85217C153.56 8.53049 148.901 4.68247 146.378 7.19535C143.856 9.7082 147.935 14.4667 144.052 13.9521C141.777 11.7126 141.979 7.86003 144.501 5.34716C147.024 2.83428 150.912 2.61267 153.186 4.85217Z"
            fill="#165C73" />
        <path
            d="M112.345 61.8674C109.975 64.7235 109.445 58.7376 105.867 58.7376C102.29 58.7376 101.76 64.9581 99.3896 61.8674C99.3896 58.6911 102.29 56.1163 105.867 56.1163C109.445 56.1163 112.345 58.6911 112.345 61.8674Z"
            fill="#165C73" />
        <path
            d="M118.944 75.777C119.352 79.4516 114.657 75.6472 112.158 78.1833C109.66 80.7196 113.784 85.4399 109.896 84.9614C107.601 82.7432 107.765 78.8889 110.264 76.3526C112.763 73.8165 116.649 73.5587 118.944 75.777Z"
            fill="#165C73" />
        <path
            d="M139.934 89.9851C157.92 89.9851 172.5 75.5436 172.5 57.7291C172.5 39.9146 157.92 25.4731 139.934 25.4731C121.948 25.4731 107.368 39.9146 107.368 57.7291C107.368 75.5436 121.948 89.9851 139.934 89.9851Z"
            fill="#50BB98" />
        <path
            d="M139.934 25.4731C135.658 25.4731 131.423 26.3074 127.472 27.9284C123.521 29.5494 119.931 31.9254 116.907 34.9207C113.883 37.9158 111.484 41.4717 109.847 45.3852C108.211 49.2986 107.368 53.4932 107.368 57.7291C107.368 61.9649 108.211 66.1595 109.847 70.073C111.484 73.9864 113.883 77.5423 116.907 80.5375C119.931 83.5328 123.521 85.9087 127.472 87.5298C131.423 89.1508 135.658 89.9851 139.934 89.9851V57.7291V25.4731Z"
            fill="#328166" />
        <path
            d="M160.288 26.2795C160.288 37.4136 151.175 28.6987 139.934 28.6987C128.693 28.6987 119.58 37.4136 119.58 26.2795C119.58 15.1454 128.693 6.11945 139.934 6.11945C151.175 6.11945 160.288 15.1454 160.288 26.2795Z"
            fill="#165C73" />
        <path
            d="M129.432 18.4574C129.432 29.5915 138.733 28.8285 135.619 29.0212C130.408 29.3438 119.58 37.4136 119.58 26.2795C119.58 15.1454 127.64 8.86122 134.805 6.28074C142.946 5.87754 129.432 7.32333 129.432 18.4574Z"
            fill="#104456" />
        <path
            d="M126.257 74.6635C128.505 74.6635 130.327 72.8583 130.327 70.6315C130.327 68.4047 128.505 66.5995 126.257 66.5995C124.008 66.5995 122.186 68.4047 122.186 70.6315C122.186 72.8583 124.008 74.6635 126.257 74.6635Z"
            fill="#165C73" />
        <path
            d="M149.541 82.7275C151.789 82.7275 153.612 80.9223 153.612 78.6955C153.612 76.4687 151.789 74.6635 149.541 74.6635C147.293 74.6635 145.47 76.4687 145.47 78.6955C145.47 80.9223 147.293 82.7275 149.541 82.7275Z"
            fill="#165C73" />
        <path
            d="M160.288 68.6961C162.536 68.6961 164.358 66.891 164.358 64.6641C164.358 62.4373 162.536 60.6321 160.288 60.6321C158.04 60.6321 156.217 62.4373 156.217 64.6641C156.217 66.891 158.04 68.6961 160.288 68.6961Z"
            fill="#165C73" />
        <path
            d="M156.217 48.0523C158.465 48.0523 160.288 46.2471 160.288 44.0203C160.288 41.7935 158.465 39.9883 156.217 39.9883C153.969 39.9883 152.146 41.7935 152.146 44.0203C152.146 46.2471 153.969 48.0523 156.217 48.0523Z"
            fill="#165C73" />
        <path
            d="M118.115 56.1163C120.363 56.1163 122.186 54.3111 122.186 52.0843C122.186 49.8575 120.363 48.0523 118.115 48.0523C115.867 48.0523 114.044 49.8575 114.044 52.0843C114.044 54.3111 115.867 56.1163 118.115 56.1163Z"
            fill="#165C73" />
        <path
            d="M133.421 41.7624C135.669 41.7624 137.492 39.9572 137.492 37.7304C137.492 35.5036 135.669 33.6984 133.421 33.6984C131.173 33.6984 129.35 35.5036 129.35 37.7304C129.35 39.9572 131.173 41.7624 133.421 41.7624Z"
            fill="#165C73" />
        <path
            d="M155.891 21.9249C158.139 21.9249 159.962 20.1197 159.962 17.8929C159.962 15.6661 158.139 13.8609 155.891 13.8609C153.643 13.8609 151.82 15.6661 151.82 17.8929C151.82 20.1197 153.643 21.9249 155.891 21.9249Z"
            fill="#F2F2F2" />
        <path
            d="M123.651 21.9249C125.899 21.9249 127.722 20.1197 127.722 17.8929C127.722 15.6661 125.899 13.8609 123.651 13.8609C121.403 13.8609 119.58 15.6661 119.58 17.8929C119.58 20.1197 121.403 21.9249 123.651 21.9249Z"
            fill="#C4C4C4" />
        <path
            d="M17.7782 62.2901H12.6081V76.2763H3.05713V36.6575H18.6489C23.3472 36.6575 27.0206 37.7007 29.6692 39.7868C32.3177 41.873 33.6418 44.8207 33.6418 48.6303C33.6418 51.3876 33.0796 53.6734 31.9548 55.4873C30.8483 57.3014 29.1068 58.7708 26.7303 59.8956L35.0024 75.8681V76.2763H24.7713L17.7782 62.2901ZM12.6081 54.9159H18.6489C20.4628 54.9159 21.8234 54.4443 22.7304 53.501C23.6555 52.5396 24.1182 51.2063 24.1182 49.5011C24.1182 47.7959 23.6555 46.4626 22.7304 45.501C21.8053 44.5215 20.4448 44.0317 18.6489 44.0317H12.6081V54.9159ZM53.2337 76.8205C48.7167 76.8205 45.0613 75.4781 42.2677 72.7933C39.474 70.0904 38.0772 66.5803 38.0772 62.2628V61.501C38.0772 58.4895 38.6306 55.832 39.7371 53.5282C40.8619 51.2243 42.4945 49.4466 44.635 48.1949C46.7755 46.9251 49.3152 46.2901 52.254 46.2901C56.3901 46.2901 59.6553 47.5781 62.0499 50.1541C64.4444 52.7118 65.6416 56.2855 65.6416 60.875V64.4396H47.4105C47.7371 66.0905 48.4536 67.3875 49.5602 68.3308C50.6667 69.2742 52.0999 69.7458 53.8594 69.7458C56.762 69.7458 59.0294 68.7299 60.6621 66.6982L64.8526 71.6505C63.7098 73.2288 62.0862 74.4895 59.9818 75.4328C57.8956 76.3579 55.6463 76.8205 53.2337 76.8205ZM52.1995 53.3649C49.5149 53.3649 47.9185 55.1426 47.4105 58.6982H56.6622V57.9907C56.6984 56.5214 56.3265 55.3876 55.5466 54.5895C54.7665 53.7731 53.6509 53.3649 52.1995 53.3649ZM96.689 61.773C96.689 66.3444 95.655 69.9998 93.5871 72.7389C91.5372 75.4599 88.7616 76.8205 85.2605 76.8205C82.5576 76.8205 80.3353 75.8318 78.594 73.8545V87.5959H69.4239V46.8343H77.9953L78.2674 49.5554C80.027 47.3786 82.3399 46.2901 85.2061 46.2901C88.8341 46.2901 91.6551 47.6325 93.6687 50.3173C95.6823 52.9839 96.689 56.6574 96.689 61.3376V61.773ZM87.5191 61.2016C87.5191 55.9771 85.9953 53.3649 82.9476 53.3649C80.7708 53.3649 79.3196 54.145 78.594 55.705V67.2967C79.3922 68.9294 80.8614 69.7458 83.0021 69.7458C85.9227 69.7458 87.4283 67.2243 87.5191 62.1812V61.2016Z"
            fill="#50BB98" />
        <path
            d="M39.9363 43.0526V19.6202H48.3532C51.3681 19.6202 53.6588 20.1728 55.2251 21.2778C56.8023 22.3831 57.591 23.987 57.591 26.09C57.591 27.3023 57.312 28.3377 56.7541 29.1961C56.1962 30.0544 55.3755 30.6873 54.2918 31.095C55.5148 31.4169 56.4536 32.0178 57.1081 32.8976C57.7626 33.7774 58.0898 34.8502 58.0898 36.1163C58.0898 38.4122 57.3603 40.1397 55.9011 41.2984C54.4526 42.4463 52.3015 43.0311 49.4476 43.0526H39.9363ZM45.5851 33.0906V38.7074H49.2867C50.3059 38.7074 51.0891 38.4766 51.6363 38.0153C52.1834 37.5433 52.4571 36.8833 52.4571 36.0358C52.4571 34.0832 51.486 33.1015 49.5441 33.0906H45.5851ZM45.5851 29.3891H48.5303C49.764 29.3785 50.6438 29.153 51.1696 28.7132C51.6954 28.2732 51.9581 27.6242 51.9581 26.7659C51.9581 25.7789 51.6739 25.0707 51.1053 24.6415C50.5366 24.2015 49.6192 23.9817 48.3532 23.9817H45.5851V29.3891ZM71.3349 41.1696C70.1869 42.6396 68.6366 43.3745 66.6838 43.3745C64.7741 43.3745 63.3256 42.822 62.3386 41.7169C61.3622 40.601 60.874 39.0024 60.874 36.9209V25.6393H66.2975V36.9531C66.2975 38.4445 67.0218 39.1901 68.4703 39.1901C69.7149 39.1901 70.6 38.7448 71.1258 37.8544V25.6393H76.5814V43.0526H71.4959L71.3349 41.1696ZM78.9311 34.2172C78.9311 32.4576 79.2207 30.9019 79.8002 29.5501C80.3795 28.1982 81.2111 27.1575 82.2947 26.4278C83.3784 25.6876 84.6389 25.3174 86.0766 25.3174C87.8899 25.3174 89.3061 25.929 90.3253 27.1522L90.5186 25.6393H95.4431V42.3928C95.4431 43.9271 95.0838 45.2575 94.3649 46.384C93.6567 47.5212 92.6268 48.3903 91.275 48.9911C89.923 49.6027 88.3566 49.9085 86.5756 49.9085C85.2987 49.9085 84.0596 49.667 82.8579 49.1843C81.667 48.7014 80.755 48.0737 80.122 47.3014L82.3912 44.1148C83.3998 45.3057 84.7302 45.9011 86.3824 45.9011C88.7858 45.9011 89.9875 44.6673 89.9875 42.1996V41.6525C88.9467 42.8005 87.6323 43.3745 86.0445 43.3745C83.9201 43.3745 82.2034 42.5644 80.8945 40.9443C79.5855 39.3135 78.9311 37.1355 78.9311 34.4104V34.2172ZM84.3707 34.5552C84.3707 35.9821 84.6389 37.1141 85.1753 37.951C85.7119 38.7771 86.4628 39.1901 87.4286 39.1901C88.598 39.1901 89.4509 38.7985 89.9875 38.0153V30.6927C89.4617 29.8988 88.6195 29.5018 87.4607 29.5018C86.4951 29.5018 85.7387 29.9363 85.1915 30.8053C84.6442 31.6636 84.3707 32.9136 84.3707 34.5552Z"
            fill="#165C73" />
        <path
            d="M201.885 55.1336L198.864 54.9159C195.981 54.9159 194.129 55.8229 193.313 57.637V76.2763H184.144V46.8343H192.742L193.042 50.6166C194.584 47.7323 196.734 46.2901 199.49 46.2901C200.471 46.2901 201.322 46.399 202.048 46.6167L201.885 55.1336ZM217.233 39.5147V46.8343H222.076V53.2016H217.233V66.6709C217.233 67.7775 217.431 68.5484 217.831 68.9838C218.229 69.4191 219.018 69.6369 220.198 69.6369C221.105 69.6369 221.866 69.5825 222.484 69.4736V76.0315C220.832 76.5574 219.11 76.8204 217.313 76.8204C214.157 76.8204 211.826 76.0768 210.32 74.5893C208.815 73.1016 208.062 70.8432 208.062 67.8138V53.2016H204.306V46.8343H208.062V39.5147H217.233Z"
            fill="#50BB98" />
    </g>
    <defs>
        <clipPath id="clip0_312:63">
            <rect width="223.212" height="89.1879" fill="white" transform="translate(0.0639648 0.797119)" />
        </clipPath>
    </defs>
</svg>