<svg viewBox="0 0 220 88" fill="none" xmlns="http://www.w3.org/2000/svg">
    <path
        d="M172.035 38.6982C169.664 41.5543 169.134 35.5684 165.557 35.5684C161.979 35.5684 161.449 41.7889 159.08 38.6982C159.08 35.5219 161.979 32.9471 165.557 32.9471C169.134 32.9471 172.035 35.5219 172.035 38.6982Z"
        fill="#165C73" />
    <path
        d="M177.407 59.6646C175.038 62.5207 174.508 56.5348 170.93 56.5348C167.352 56.5348 166.823 62.7554 164.452 59.6646C164.452 56.4883 167.352 53.9135 170.93 53.9135C174.508 53.9135 177.407 56.4883 177.407 59.6646Z"
        fill="#165C73" />
    <path
        d="M168.59 81.1474C165.226 82.7486 167.29 77.0986 164.045 75.6056C160.802 74.1128 157.675 79.5331 156.84 75.7411C158.191 72.8605 161.916 71.7356 165.161 73.2284C168.406 74.7213 169.94 78.2668 168.59 81.1474Z"
        fill="#165C73" />
    <path
        d="M113.416 38.6982C111.046 41.5543 110.516 35.5684 106.938 35.5684C103.361 35.5684 102.83 41.7889 100.46 38.6982C100.46 35.5219 103.361 32.9471 106.938 32.9471C110.516 32.9471 113.416 35.5219 113.416 38.6982Z"
        fill="#165C73" />
    <path
        d="M129.221 12.5265C125.52 12.0457 130.368 8.43282 128.475 5.42588C126.582 2.41896 120.972 5.26465 122.366 1.63741C125.087 -0.0431705 128.828 1.03203 130.721 4.03896C132.613 7.04588 131.942 10.8459 129.221 12.5265Z"
        fill="#165C73" />
    <path
        d="M150.186 2.64938C150.56 6.3277 145.901 2.47969 143.378 4.99256C140.856 7.50541 144.935 12.2639 141.052 11.7493C138.777 9.50979 138.979 5.65724 141.501 3.14437C144.024 0.631496 147.912 0.409881 150.186 2.64938Z"
        fill="#165C73" />
    <path
        d="M109.345 59.6646C106.975 62.5207 106.445 56.5348 102.867 56.5348C99.29 56.5348 98.7597 62.7554 96.3896 59.6646C96.3896 56.4883 99.29 53.9135 102.867 53.9135C106.445 53.9135 109.345 56.4883 109.345 59.6646Z"
        fill="#165C73" />
    <path
        d="M115.944 73.5742C116.352 77.2488 111.657 73.4444 109.158 75.9805C106.66 78.5168 110.784 83.2371 106.896 82.7586C104.601 80.5404 104.765 76.6861 107.264 74.1498C109.763 71.6137 113.649 71.3559 115.944 73.5742Z"
        fill="#165C73" />
    <path
        d="M136.934 87.7823C154.92 87.7823 169.5 73.3408 169.5 55.5263C169.5 37.7118 154.92 23.2703 136.934 23.2703C118.948 23.2703 104.368 37.7118 104.368 55.5263C104.368 73.3408 118.948 87.7823 136.934 87.7823Z"
        fill="#50BB98" />
    <path
        d="M136.934 23.2703C132.658 23.2703 128.423 24.1046 124.472 25.7256C120.521 27.3466 116.931 29.7226 113.907 32.7179C110.883 35.713 108.484 39.2689 106.847 43.1824C105.211 47.0959 104.368 51.2904 104.368 55.5263C104.368 59.7621 105.211 63.9567 106.847 67.8702C108.484 71.7836 110.883 75.3395 113.907 78.3347C116.931 81.33 120.521 83.7059 124.472 85.327C128.423 86.948 132.658 87.7823 136.934 87.7823V55.5263V23.2703Z"
        fill="#328166" />
    <path
        d="M157.288 24.0767C157.288 35.2108 148.175 26.4959 136.934 26.4959C125.693 26.4959 116.58 35.2108 116.58 24.0767C116.58 12.9426 125.693 3.91669 136.934 3.91669C148.175 3.91669 157.288 12.9426 157.288 24.0767Z"
        fill="#165C73" />
    <path
        d="M126.432 16.2546C126.432 27.3887 135.733 26.6257 132.619 26.8184C127.408 27.141 116.58 35.2108 116.58 24.0767C116.58 12.9426 124.64 6.65843 131.805 4.07795C139.946 3.67475 126.432 5.12054 126.432 16.2546Z"
        fill="#104456" />
    <path
        d="M123.257 72.4607C125.505 72.4607 127.327 70.6555 127.327 68.4287C127.327 66.2019 125.505 64.3967 123.257 64.3967C121.008 64.3967 119.186 66.2019 119.186 68.4287C119.186 70.6555 121.008 72.4607 123.257 72.4607Z"
        fill="#165C73" />
    <path
        d="M146.541 80.5247C148.789 80.5247 150.612 78.7195 150.612 76.4927C150.612 74.2659 148.789 72.4607 146.541 72.4607C144.293 72.4607 142.47 74.2659 142.47 76.4927C142.47 78.7195 144.293 80.5247 146.541 80.5247Z"
        fill="#165C73" />
    <path
        d="M157.288 66.4933C159.536 66.4933 161.358 64.6881 161.358 62.4613C161.358 60.2345 159.536 58.4293 157.288 58.4293C155.04 58.4293 153.217 60.2345 153.217 62.4613C153.217 64.6881 155.04 66.4933 157.288 66.4933Z"
        fill="#165C73" />
    <path
        d="M153.217 45.8495C155.465 45.8495 157.288 44.0443 157.288 41.8175C157.288 39.5907 155.465 37.7855 153.217 37.7855C150.969 37.7855 149.146 39.5907 149.146 41.8175C149.146 44.0443 150.969 45.8495 153.217 45.8495Z"
        fill="#165C73" />
    <path
        d="M115.115 53.9135C117.363 53.9135 119.186 52.1083 119.186 49.8815C119.186 47.6547 117.363 45.8495 115.115 45.8495C112.867 45.8495 111.044 47.6547 111.044 49.8815C111.044 52.1083 112.867 53.9135 115.115 53.9135Z"
        fill="#165C73" />
    <path
        d="M130.421 39.5595C132.669 39.5595 134.492 37.7544 134.492 35.5275C134.492 33.3007 132.669 31.4955 130.421 31.4955C128.173 31.4955 126.35 33.3007 126.35 35.5275C126.35 37.7544 128.173 39.5595 130.421 39.5595Z"
        fill="#165C73" />
    <path
        d="M152.891 19.7221C155.139 19.7221 156.962 17.9169 156.962 15.6901C156.962 13.4633 155.139 11.6581 152.891 11.6581C150.643 11.6581 148.82 13.4633 148.82 15.6901C148.82 17.9169 150.643 19.7221 152.891 19.7221Z"
        fill="#F2F2F2" />
    <path
        d="M120.651 19.7221C122.899 19.7221 124.722 17.9169 124.722 15.6901C124.722 13.4633 122.899 11.6581 120.651 11.6581C118.403 11.6581 116.58 13.4633 116.58 15.6901C116.58 17.9169 118.403 19.7221 120.651 19.7221Z"
        fill="#C4C4C4" />
    <path
        d="M14.7782 60.0873H9.60807V74.0735H0.0571289V34.4547H15.6489C20.3472 34.4547 24.0206 35.4979 26.6692 37.584C29.3177 39.6702 30.6418 42.6179 30.6418 46.4275C30.6418 49.1847 30.0796 51.4706 28.9548 53.2845C27.8483 55.0986 26.1068 56.568 23.7303 57.6928L32.0024 73.6653V74.0735H21.7713L14.7782 60.0873ZM9.60807 52.7131H15.6489C17.4628 52.7131 18.8234 52.2415 19.7304 51.2982C20.6555 50.3368 21.1182 49.0035 21.1182 47.2983C21.1182 45.593 20.6555 44.2597 19.7304 43.2982C18.8053 42.3187 17.4448 41.8289 15.6489 41.8289H9.60807V52.7131ZM50.2337 74.6176C45.7167 74.6176 42.0613 73.2753 39.2677 70.5905C36.474 67.8876 35.0772 64.3775 35.0772 60.06V59.2981C35.0772 56.2867 35.6306 53.6291 36.7371 51.3254C37.8619 49.0215 39.4945 47.2437 41.635 45.992C43.7755 44.7223 46.3152 44.0873 49.254 44.0873C53.3901 44.0873 56.6553 45.3753 59.0499 47.9513C61.4444 50.509 62.6416 54.0827 62.6416 58.6722V62.2368H44.4105C44.7371 63.8877 45.4536 65.1847 46.5602 66.128C47.6667 67.0714 49.0999 67.5429 50.8594 67.5429C53.762 67.5429 56.0294 66.527 57.6621 64.4954L61.8526 69.4477C60.7098 71.0259 59.0862 72.2867 56.9818 73.23C54.8956 74.1551 52.6463 74.6176 50.2337 74.6176ZM49.1995 51.162C46.5149 51.162 44.9185 52.9398 44.4105 56.4954H53.6622V55.7879C53.6984 54.3186 53.3265 53.1848 52.5466 52.3866C51.7665 51.5702 50.6509 51.162 49.1995 51.162ZM93.689 59.5702C93.689 64.1415 92.655 67.7969 90.5871 70.5361C88.5372 73.2571 85.7616 74.6176 82.2605 74.6176C79.5576 74.6176 77.3353 73.629 75.594 71.6517V85.3931H66.4239V44.6315H74.9953L75.2674 47.3526C77.027 45.1758 79.3399 44.0873 82.2061 44.0873C85.8341 44.0873 88.6551 45.4297 90.6687 48.1145C92.6823 50.7811 93.689 54.4546 93.689 59.1348V59.5702ZM84.5191 58.9988C84.5191 53.7743 82.9953 51.162 79.9476 51.162C77.7708 51.162 76.3196 51.9422 75.594 53.5022V65.0939C76.3922 66.7265 77.8614 67.5429 80.0021 67.5429C82.9227 67.5429 84.4283 65.0215 84.5191 59.9784V58.9988Z"
        fill="#50BB98" />
    <path
        d="M36.9363 40.8498V17.4174H45.3532C48.3681 17.4174 50.6588 17.97 52.2251 19.0751C53.8023 20.1803 54.591 21.7842 54.591 23.8872C54.591 25.0995 54.312 26.1349 53.7541 26.9933C53.1962 27.8516 52.3755 28.4845 51.2918 28.8922C52.5148 29.2141 53.4536 29.815 54.1081 30.6948C54.7626 31.5746 55.0898 32.6474 55.0898 33.9135C55.0898 36.2095 54.3603 37.9369 52.9011 39.0956C51.4526 40.2436 49.3015 40.8284 46.4476 40.8498H36.9363ZM42.5851 30.8879V36.5046H46.2867C47.3059 36.5046 48.0891 36.2738 48.6363 35.8125C49.1834 35.3405 49.4571 34.6805 49.4571 33.833C49.4571 31.8804 48.486 30.8987 46.5441 30.8879H42.5851ZM42.5851 27.1863H45.5303C46.764 27.1757 47.6438 26.9502 48.1696 26.5104C48.6954 26.0704 48.9581 25.4214 48.9581 24.5631C48.9581 23.5761 48.6739 22.8679 48.1053 22.4387C47.5366 21.9987 46.6192 21.7789 45.3532 21.7789H42.5851V27.1863ZM68.3349 38.9669C67.1869 40.4368 65.6366 41.1717 63.6838 41.1717C61.7741 41.1717 60.3256 40.6192 59.3386 39.5141C58.3622 38.3982 57.874 36.7996 57.874 34.7181V23.4366H63.2975V34.7504C63.2975 36.2417 64.0218 36.9873 65.4703 36.9873C66.7149 36.9873 67.6 36.542 68.1258 35.6516V23.4366H73.5814V40.8498H68.4959L68.3349 38.9669ZM75.9311 32.0144C75.9311 30.2548 76.2207 28.6991 76.8002 27.3473C77.3795 25.9954 78.2111 24.9547 79.2947 24.2251C80.3784 23.4848 81.6389 23.1146 83.0766 23.1146C84.8899 23.1146 86.3061 23.7262 87.3253 24.9494L87.5186 23.4366H92.4431V40.19C92.4431 41.7243 92.0838 43.0547 91.3649 44.1812C90.6567 45.3184 89.6268 46.1875 88.275 46.7883C86.923 47.3999 85.3566 47.7057 83.5756 47.7057C82.2987 47.7057 81.0596 47.4642 79.8579 46.9815C78.667 46.4986 77.755 45.8709 77.122 45.0986L79.3912 41.912C80.3998 43.1029 81.7302 43.6983 83.3824 43.6983C85.7858 43.6983 86.9875 42.4645 86.9875 39.9968V39.4497C85.9467 40.5977 84.6323 41.1717 83.0445 41.1717C80.9201 41.1717 79.2034 40.3616 77.8945 38.7416C76.5855 37.1107 75.9311 34.9328 75.9311 32.2076V32.0144ZM81.3707 32.3524C81.3707 33.7793 81.6389 34.9113 82.1753 35.7482C82.7119 36.5743 83.4628 36.9873 84.4286 36.9873C85.598 36.9873 86.4509 36.5957 86.9875 35.8125V28.4899C86.4617 27.696 85.6195 27.2991 84.4607 27.2991C83.4951 27.2991 82.7387 27.7335 82.1915 28.6025C81.6442 29.4608 81.3707 30.7108 81.3707 32.3524Z"
        fill="#165C73" />
    <path
        d="M198.885 52.9308L195.864 52.7131C192.981 52.7131 191.129 53.6201 190.313 55.4342V74.0735H181.144V44.6315H189.742L190.042 48.4138C191.584 45.5295 193.734 44.0873 196.49 44.0873C197.471 44.0873 198.322 44.1962 199.048 44.4139L198.885 52.9308ZM214.233 37.312V44.6315H219.076V50.9988H214.233V64.4681C214.233 65.5747 214.431 66.3456 214.831 66.781C215.229 67.2163 216.018 67.4341 217.198 67.4341C218.105 67.4341 218.866 67.3797 219.484 67.2709V73.8287C217.832 74.3546 216.11 74.6176 214.313 74.6176C211.157 74.6176 208.826 73.874 207.32 72.3865C205.815 70.8989 205.062 68.6404 205.062 65.611V50.9988H201.306V44.6315H205.062V37.312H214.233Z"
        fill="#50BB98" />
</svg>