<svg viewBox="0 0 1384 553" fill="none" xmlns="http://www.w3.org/2000/svg">
    <path
        d="M1084.89 248.659C1070.19 266.368 1066.9 229.253 1044.72 229.253C1022.54 229.253 1019.25 267.823 1004.56 248.659C1004.56 228.965 1022.54 213 1044.72 213C1066.9 213 1084.89 228.965 1084.89 248.659Z"
        fill="#165C73" />
    <path
        d="M1118.2 378.659C1103.51 396.368 1100.22 359.253 1078.04 359.253C1055.85 359.253 1052.57 397.823 1037.87 378.659C1037.87 358.965 1055.85 343 1078.04 343C1100.22 343 1118.2 358.965 1118.2 378.659Z"
        fill="#165C73" />
    <path
        d="M1063.53 511.861C1042.67 521.789 1055.47 486.757 1035.35 477.5C1015.24 468.244 995.849 501.852 990.673 478.34C999.05 460.479 1022.15 453.504 1042.27 462.76C1062.39 472.017 1071.9 494 1063.53 511.861Z"
        fill="#165C73" />
    <path
        d="M721.428 248.659C706.734 266.368 703.446 229.253 681.263 229.253C659.081 229.253 655.793 267.823 641.098 248.659C641.098 228.965 659.081 213 681.263 213C703.446 213 721.428 228.965 721.428 248.659Z"
        fill="#165C73" />
    <path
        d="M819.425 86.3839C796.48 83.4029 826.536 61.0018 814.799 42.3576C803.062 23.7135 768.279 41.3579 776.922 18.8676C793.794 8.44731 816.986 15.114 828.723 33.7581C840.46 52.4022 836.297 75.9636 819.425 86.3839Z"
        fill="#165C73" />
    <path
        d="M949.418 25.1425C951.735 47.9495 922.845 24.0903 907.205 39.6711C891.564 55.2518 916.86 84.7562 892.779 81.5655C878.679 67.6797 879.928 43.7924 895.569 28.2116C911.209 12.6308 935.318 11.2567 949.418 25.1425Z"
        fill="#165C73" />
    <path
        d="M696.188 378.659C681.494 396.368 678.206 359.253 656.023 359.253C633.841 359.253 630.553 397.823 615.858 378.659C615.858 358.965 633.841 343 656.023 343C678.206 343 696.188 358.965 696.188 378.659Z"
        fill="#165C73" />
    <path
        d="M737.101 464.904C739.635 487.688 710.52 464.099 695.028 479.824C679.536 495.55 705.11 524.818 681 521.851C666.769 508.097 667.791 484.199 683.284 468.473C698.776 452.748 722.871 451.15 737.101 464.904Z"
        fill="#165C73" />
    <ellipse cx="867.249" cy="353" rx="201.921" ry="200" fill="#50BB98" />
    <path
        d="M867.249 153C840.733 153 814.476 158.173 789.978 168.224C765.479 178.275 743.22 193.007 724.47 211.579C705.72 230.15 690.846 252.198 680.699 276.463C670.551 300.728 665.329 326.736 665.329 353C665.329 379.264 670.551 405.272 680.699 429.537C690.846 453.802 705.72 475.85 724.47 494.421C743.22 512.993 765.479 527.725 789.978 537.776C814.476 547.827 840.733 553 867.249 553L867.249 353V153Z"
        fill="#328166" />
    <path
        d="M993.45 158C993.45 227.036 936.948 173 867.249 173C797.551 173 741.049 227.036 741.049 158C741.049 88.9644 797.551 33 867.249 33C936.948 33 993.45 88.9644 993.45 158Z"
        fill="#165C73" />
    <path
        d="M802.13 109.5C802.13 178.536 859.805 173.805 840.495 175C808.187 177 741.049 227.036 741.049 158C741.049 88.9644 791.024 50 835.447 34C885.927 31.5 802.13 40.4645 802.13 109.5Z"
        fill="#104456" />
    <ellipse cx="782.443" cy="433" rx="25.2401" ry="25" fill="#165C73" />
    <ellipse cx="926.816" cy="483" rx="25.2401" ry="25" fill="#165C73" />
    <ellipse cx="993.45" cy="396" rx="25.2401" ry="25" fill="#165C73" />
    <ellipse cx="968.21" cy="268" rx="25.2401" ry="25" fill="#165C73" />
    <ellipse cx="731.962" cy="318" rx="25.2401" ry="25" fill="#165C73" />
    <ellipse cx="826.865" cy="229" rx="25.2401" ry="25" fill="#165C73" />
    <ellipse cx="966.19" cy="106" rx="25.2401" ry="25" fill="#F2F2F2" />
    <ellipse cx="766.289" cy="106" rx="25.2401" ry="25" fill="#C4C4C4" />
    <path
        d="M109.835 381.28H77.7784V468H18.5588V222.348H115.234C144.365 222.348 167.142 228.816 183.564 241.751C199.986 254.686 208.196 272.963 208.196 296.584C208.196 313.68 204.71 327.853 197.736 339.1C190.875 350.348 180.077 359.459 165.342 366.433L216.632 465.469V468H153.195L109.835 381.28ZM77.7784 335.557H115.234C126.481 335.557 134.917 332.633 140.541 326.784C146.277 320.823 149.146 312.556 149.146 301.983C149.146 291.41 146.277 283.143 140.541 277.181C134.805 271.108 126.369 268.071 115.234 268.071H77.7784V335.557ZM329.673 471.374C301.666 471.374 279.001 463.051 261.68 446.404C244.358 429.645 235.697 407.881 235.697 381.111V376.387C235.697 357.715 239.128 341.237 245.989 326.953C252.963 312.668 263.086 301.645 276.358 293.884C289.63 286.011 305.377 282.074 323.599 282.074C349.244 282.074 369.49 290.06 384.337 306.032C399.184 321.891 406.607 344.049 406.607 372.506V394.608H293.567C295.592 404.844 300.035 412.886 306.896 418.735C313.757 424.584 322.643 427.508 333.553 427.508C351.55 427.508 365.609 421.209 375.732 408.612L401.715 439.318C394.629 449.104 384.562 456.921 371.514 462.77C358.579 468.506 344.632 471.374 329.673 471.374ZM323.261 325.94C306.615 325.94 296.717 336.963 293.567 359.009H350.931V354.622C351.156 345.512 348.85 338.482 344.014 333.533C339.177 328.471 332.26 325.94 323.261 325.94ZM599.113 378.074C599.113 406.418 592.702 429.083 579.88 446.067C567.17 462.938 549.96 471.374 528.252 471.374C511.493 471.374 497.714 465.244 486.917 452.984V538.186H430.059V285.448H483.205L484.892 302.32C495.802 288.823 510.143 282.074 527.915 282.074C550.41 282.074 567.901 290.397 580.386 307.044C592.871 323.578 599.113 346.355 599.113 375.374V378.074ZM542.256 374.531C542.256 342.137 532.808 325.94 513.911 325.94C500.414 325.94 491.416 330.777 486.917 340.45V412.323C491.866 422.446 500.976 427.508 514.249 427.508C532.358 427.508 541.693 411.874 542.256 380.605V374.531Z"
        fill="#50BB98" />
    <path
        d="M247.224 262V116.71H299.412C318.106 116.71 332.309 120.136 342.021 126.988C351.8 133.841 356.69 143.786 356.69 156.825C356.69 164.342 354.96 170.762 351.501 176.084C348.042 181.406 342.953 185.33 336.234 187.858C343.817 189.854 349.638 193.58 353.696 199.035C357.754 204.49 359.783 211.142 359.783 218.992C359.783 233.228 355.26 243.939 346.212 251.123C337.231 258.241 323.893 261.867 306.198 262H247.224ZM282.249 200.232V235.058H305.2C311.52 235.058 316.376 233.627 319.769 230.767C323.161 227.84 324.858 223.748 324.858 218.493C324.858 206.386 318.837 200.299 306.796 200.232H282.249ZM282.249 177.281H300.51C308.16 177.215 313.615 175.817 316.875 173.09C320.135 170.362 321.764 166.338 321.764 161.016C321.764 154.896 320.002 150.505 316.476 147.844C312.95 145.116 307.262 143.753 299.412 143.753H282.249V177.281ZM441.908 250.325C434.79 259.439 425.177 263.996 413.069 263.996C401.228 263.996 392.247 260.57 386.127 253.718C380.073 246.799 377.046 236.887 377.046 223.981V154.031H410.674V224.181C410.674 233.428 415.165 238.051 424.146 238.051C431.863 238.051 437.351 235.29 440.611 229.769V154.031H474.438V262H442.906L441.908 250.325ZM489.007 207.217C489.007 196.307 490.803 186.661 494.396 178.279C497.988 169.897 503.144 163.444 509.863 158.92C516.582 154.33 524.398 152.035 533.312 152.035C544.555 152.035 553.336 155.827 559.656 163.411L560.854 154.031H591.388V257.909C591.388 267.422 589.16 275.671 584.703 282.656C580.312 289.707 573.926 295.096 565.544 298.821C557.161 302.613 547.449 304.509 536.406 304.509C528.489 304.509 520.806 303.012 513.355 300.019C505.971 297.025 500.316 293.133 496.391 288.344L510.461 268.586C516.715 275.97 524.964 279.662 535.208 279.662C550.11 279.662 557.561 272.012 557.561 256.711V253.319C551.108 260.437 542.958 263.996 533.113 263.996C519.941 263.996 509.297 258.973 501.181 248.928C493.065 238.816 489.007 225.312 489.007 208.415V207.217ZM522.735 209.313C522.735 218.16 524.398 225.179 527.724 230.368C531.051 235.49 535.707 238.051 541.695 238.051C548.946 238.051 554.234 235.623 557.561 230.767V185.364C554.301 180.441 549.079 177.98 541.894 177.98C535.907 177.98 531.217 180.674 527.824 186.062C524.431 191.384 522.735 199.134 522.735 209.313Z"
        fill="#165C73" />
    <path
        d="M1251.37 336.907L1232.64 335.557C1214.76 335.557 1203.28 341.181 1198.22 352.429V468H1141.37V285.448H1194.68L1196.54 308.9C1206.1 291.016 1219.43 282.074 1236.52 282.074C1242.6 282.074 1247.88 282.749 1252.38 284.099L1251.37 336.907ZM1346.53 240.064V285.448H1376.56V324.928H1346.53V408.443C1346.53 415.304 1347.76 420.084 1350.24 422.784C1352.71 425.483 1357.6 426.833 1364.92 426.833C1370.54 426.833 1375.26 426.496 1379.09 425.821V466.482C1368.85 469.743 1358.17 471.374 1347.03 471.374C1327.46 471.374 1313.01 466.763 1303.67 457.54C1294.34 448.316 1289.67 434.313 1289.67 415.529V324.928H1266.38V285.448H1289.67V240.064H1346.53Z"
        fill="#50BB98" />
</svg>