<svg viewBox="0 0 317 317" fill="none" xmlns="http://www.w3.org/2000/svg">
    <g clip-path="url(#clip0_335:46)">
        <path
            d="M214.749 84.9956C215.759 94.6842 203.563 84.5887 197.003 91.2337C190.444 97.8783 201.136 110.378 190.995 109.059C185.039 103.179 185.529 93.0261 192.088 86.3815C198.647 79.7366 208.793 79.1162 214.749 84.9956Z"
            fill="#165C73" />
        <path
            d="M263.916 113.826C264.926 123.514 252.73 113.419 246.17 120.064C239.611 126.708 250.303 139.208 240.162 137.888C234.206 132.009 234.696 121.856 241.255 115.211C247.814 108.567 257.96 107.946 263.916 113.826Z"
            fill="#165C73" />
        <path
            d="M288.032 169.969C284.867 179.182 278.059 164.888 269.31 168.15C260.562 171.414 264.993 187.254 256.352 181.785C253.427 173.944 258.149 164.942 266.896 161.679C275.645 158.416 285.108 162.128 288.032 169.969Z"
            fill="#165C73" />
        <path
            d="M107.275 193.869C108.286 203.558 96.0889 193.463 89.5295 200.107C82.9702 206.752 93.6625 219.252 83.5217 217.932C77.5657 212.053 78.0548 201.9 84.6142 195.255C91.1735 188.61 101.319 187.99 107.275 193.869Z"
            fill="#165C73" />
        <path
            d="M87.1763 116.069C79.4899 122.052 81.6027 106.362 72.4937 104.311C63.3847 102.261 58.4354 117.948 54.1895 108.645C56.027 100.48 64.9011 95.523 74.0101 97.5733C83.1194 99.6232 89.0141 107.904 87.1763 116.069Z"
            fill="#165C73" />
        <path
            d="M107.094 58.8468C114.677 64.9612 98.9182 66.4926 99.0053 75.8292C99.0926 85.1656 115.495 86.3964 107.41 92.6574C99.0409 92.7356 92.1861 85.2303 92.0989 75.8936C92.0118 66.557 98.7253 58.9248 107.094 58.8468Z"
            fill="#165C73" />
        <path
            d="M139.127 240.24C140.138 249.928 127.941 239.833 121.382 246.478C114.822 253.123 125.515 265.622 115.374 264.303C109.418 258.423 109.907 248.271 116.466 241.626C123.026 234.981 133.171 234.36 139.127 240.24Z"
            fill="#165C73" />
        <path
            d="M177.308 253.732C184.947 259.775 169.204 261.454 169.379 270.789C169.554 280.124 185.968 281.201 177.941 287.538C169.574 287.694 162.648 280.254 162.473 270.918C162.299 261.583 168.94 253.888 177.308 253.732Z"
            fill="#165C73" />
        <path
            d="M242.435 241.046C275.41 207.641 275.062 153.828 241.657 120.853C208.252 87.8773 154.44 88.2256 121.464 121.631C88.4887 155.036 88.8369 208.848 122.242 241.824C155.647 274.799 209.459 274.451 242.435 241.046Z"
            fill="#50BB98" />
        <path
            d="M121.464 121.631C113.623 129.574 107.424 138.984 103.219 149.323C99.0149 159.661 96.8881 170.727 96.9606 181.888C97.0325 193.049 99.3024 204.087 103.64 214.37C107.978 224.654 114.299 233.983 122.242 241.824C130.185 249.664 139.595 255.864 149.934 260.069C160.273 264.273 171.339 266.4 182.5 266.327C193.66 266.255 204.698 263.985 214.982 259.648C225.265 255.31 234.594 248.989 242.435 241.046L181.95 181.338L121.464 121.631Z"
            fill="#328166" />
        <path
            d="M160.294 85.32C181.172 105.93 148.123 106.723 127.513 127.601C106.903 148.48 106.538 181.537 85.6593 160.927C64.7811 140.317 64.5633 106.684 85.1731 85.8061C105.783 64.9278 139.415 64.7103 160.294 85.32Z"
            fill="#165C73" />
        <path
            d="M89.0531 128.151C109.931 148.761 125.555 130.072 120.207 136.213C111.258 146.488 106.538 181.537 85.6593 160.927C64.7811 140.317 67.7748 113.715 76.0716 95.6312C90.2424 79.7635 68.1749 107.541 89.0531 128.151Z"
            fill="#104456" />
        <path
            d="M188.627 238.088C192.749 233.913 192.706 227.186 188.53 223.064C184.354 218.942 177.628 218.986 173.506 223.162C169.384 227.337 169.428 234.064 173.603 238.186C177.779 242.308 184.505 242.264 188.627 238.088Z"
            fill="#165C73" />
        <path
            d="M246.439 209.768C250.561 205.593 250.518 198.866 246.342 194.744C242.166 190.622 235.44 190.666 231.318 194.842C227.196 199.017 227.24 205.744 231.415 209.866C235.591 213.988 242.317 213.944 246.439 209.768Z"
            fill="#165C73" />
        <path
            d="M239.832 163.835C243.954 159.66 243.91 152.933 239.734 148.811C235.559 144.689 228.832 144.733 224.71 148.909C220.588 153.084 220.632 159.811 224.808 163.933C228.983 168.055 235.71 168.011 239.832 163.835Z"
            fill="#165C73" />
        <path
            d="M193.658 133.183C197.78 129.008 197.736 122.281 193.56 118.159C189.385 114.037 182.658 114.081 178.536 118.256C174.414 122.432 174.458 129.159 178.634 133.281C182.809 137.403 189.536 137.359 193.658 133.183Z"
            fill="#165C73" />
        <path
            d="M138.921 218.878C143.043 214.702 143 207.976 138.824 203.854C134.648 199.732 127.922 199.775 123.8 203.951C119.678 208.127 119.722 214.853 123.897 218.975C128.073 223.097 134.799 223.054 138.921 218.878Z"
            fill="#165C73" />
        <path
            d="M140.068 163.88C144.19 159.704 144.146 152.978 139.971 148.856C135.795 144.734 129.068 144.778 124.947 148.953C120.825 153.129 120.868 159.855 125.044 163.977C129.219 168.099 135.946 168.056 140.068 163.88Z"
            fill="#165C73" />
        <path
            d="M144.068 85.4249C148.189 81.2493 148.146 74.5228 143.97 70.4008C139.795 66.2789 133.068 66.3224 128.946 70.498C124.824 74.6737 124.868 81.4002 129.043 85.5222C133.219 89.6441 139.946 89.6006 144.068 85.4249Z"
            fill="#F2F2F2" />
        <path
            d="M84.9571 145.305C89.079 141.13 89.0355 134.403 84.8599 130.281C80.6842 126.159 73.9577 126.203 69.8357 130.379C65.7138 134.554 65.7573 141.281 69.933 145.403C74.1086 149.525 80.8351 149.481 84.9571 145.305Z"
            fill="#C4C4C4" />
    </g>
    <defs>
        <clipPath id="clip0_335:46">
            <rect width="211.627" height="235" fill="white" transform="translate(0.856934 151.259) rotate(-45.3708)" />
        </clipPath>
    </defs>
</svg>